<?xml version="1.0" standalone="no"?>
<!DOCTYPE svg PUBLIC "-//W3C//DTD SVG 20010904//EN"
 "http://www.w3.org/TR/2001/REC-SVG-20010904/DTD/svg10.dtd">
<svg version="1.0" xmlns="http://www.w3.org/2000/svg"
 width="256.000000pt" height="256.000000pt" viewBox="0 0 657.000000 619.000000"
 preserveAspectRatio="xMidYMid meet">

<g transform="translate(0.000000,619.000000) scale(0.100000,-0.100000)"
fill="#000000" stroke="none">
<path d="M4135 5854 c-665 -179 -1211 -328 -1213 -332 -1 -4 -85 -149 -185
-322 l-183 -315 -382 -5 -382 -5 -892 -892 -893 -893 895 -895 895 -895 380
-2 380 -3 188 -325 187 -325 1203 -322 c661 -178 1212 -323 1223 -323 16 0 24
8 29 28 3 15 150 563 326 1218 l319 1191 -182 314 c-99 173 -183 322 -186 331
-2 11 70 146 179 335 101 174 183 324 183 332 0 9 -146 559 -325 1224 -251
938 -327 1207 -339 1206 -8 0 -559 -146 -1225 -325z m355 -588 c0 -2 -243
-424 -539 -937 l-539 -934 -1089 -3 -1088 -2 691 691 692 692 923 248 c881
236 949 254 949 245z m790 -1245 l250 -933 -251 -937 c-138 -515 -252 -937
-254 -939 -4 -4 41 -81 -570 978 -268 465 -494 857 -503 871 -15 27 -8 38 529
969 299 518 545 938 546 933 1 -4 115 -428 253 -942z m-1326 -2179 c296 -513
537 -935 535 -936 -2 -2 -426 109 -942 248 l-937 251 -688 688 -687 687 1090
-2 1090 -3 539 -933z"/>
</g>
</svg>
